<svg xmlns="http://www.w3.org/2000/svg" width="24" height="24" viewBox="0 0 24 24"><path d="M16.5 2.75c-.965 0-1.75.785-1.75 1.75s.785 1.75 1.75 1.75 1.75-.785 1.75-1.75-.785-1.75-1.75-1.75zm0-2.75C18.98 0 21 2.02 21 4.5S18.98 9 16.5 9 12 6.98 12 4.5 14.02 0 16.5 0zM11 17.01s2.54 3.088 4.02 4.943C16.186 23.408 17.048 24 18.485 24 19.895 24 21 22.936 21 21.69c0-.538-.184-1.11-.594-1.645C18.886 18.072 18 17.01 18 17.01h-7zM7.864 17H5c-.55 0-1-.45-1-1s.45-1 1-1h13.28c.892 0 1.4.248 1.962.958.96 1.212 2.505 3.163 2.562 3.25C23.54 18.34 24 17.23 24 16c0-2.762-2.238-5-5-5H5c-2.76 0-5 2.238-5 5s2.24 5 5 5h6.14c-1.143-1.405-3.276-4-3.276-4zm.05-12.5L10 6.586 8.586 8 6.5 5.914 4.414 8 3 6.586 5.086 4.5 3 2.414 4.414 1 6.5 3.086 8.586 1 10 2.414 7.914 4.5z"/></svg>